<svg xmlns="http://www.w3.org/2000/svg" viewBox="0 0 100 100" role="img" aria-label="????">
  <title>???? — ?????</title>
  <defs>
    <style>
      .ink { fill: none; stroke: #141414; stroke-linecap: round; stroke-linejoin: round; }
      .jade { fill: none; stroke: #1a4d3a; stroke-linecap: round; stroke-linejoin: round; }
      .jade-fill { fill: #1a4d3a; stroke: none; }
    </style>
  </defs>
  <!-- ????????????????????????? -->
  <path
    class="ink"
    d="M 50 8 A 42 42 0 0 0 8 50 A 42 42 0 0 0 50 92"
    stroke-width="3.4"
  />
  <path
    class="jade"
    d="M 50 8 A 42 42 0 0 1 92 50 A 42 42 0 0 1 50 92"
    stroke-width="1.15"
  />
  <path
    class="jade"
    d="M 52 90 Q 50 86 48 90"
    stroke-width="1"
    opacity="0.9"
  />
  <circle class="jade-fill" cx="50" cy="90" r="1.6" opacity="0.85" />
  <!-- ???? + ??????????? -->
  <path
    class="ink"
    d="M 9 51 L 20 51 L 26 51 L 32 51 L 38 51 L 50 6 L 62 51 L 68 48.5 L 74 51 L 85 50.5 L 91 51"
    stroke-width="1.35"
  />
  <!-- ???????? -->
  <path
    class="ink"
    d="M 12 69 Q 9 76 12 83 Q 16 88 24 86 Q 32 84 36 78 L 35 72 Q 28 68 20 70 Q 14 66 12 69 Z"
    stroke-width="1.15"
    fill="none"
  />
  <path
    class="ink"
    d="M 14 72 Q 10 78 16 81 Q 24 84 32 80"
    stroke-width="0.9"
    fill="none"
    opacity="0.9"
  />
  <!-- ???? -->
  <path
    class="jade-fill"
    d="M 22 38 Q 20 32 18 30 Q 16 28 15 32 Q 14 36 17 40 Q 20 38 22 38 Z"
  />
  <path
    class="jade-fill"
    d="M 24 36 Q 24 30 22 27 Q 22 25 25 28 Q 28 30 28 35 Q 26 36 24 36 Z"
  />
  <path
    class="jade-fill"
    d="M 20 40 Q 18 44 20 48 Q 22 46 24 44 Q 25 40 22 38 Z"
  />
  <path
    class="jade"
    d="M 20 50 Q 20 45 20 40"
    stroke-width="0.9"
  />
  <!-- ????? / ?? -->
  <path
    class="jade"
    d="M 64 50 L 72 38 L 82 32 M 72 38 L 76 48 M 82 32 L 88 42"
    stroke-width="1.05"
  />
  <circle class="jade-fill" cx="64" cy="50" r="1.6" />
  <circle class="jade-fill" cx="72" cy="38" r="1.5" />
  <circle class="jade-fill" cx="82" cy="32" r="1.5" />
  <circle class="jade-fill" cx="88" cy="42" r="1.3" />
  <circle class="jade-fill" cx="76" cy="48" r="1.2" />
</svg>
